<?xml version="1.0" encoding="UTF-8"?>
<svg width="330px" height="1067px" viewBox="0 0 330 1067" version="1.1" xmlns="http://www.w3.org/2000/svg" xmlns:xlink="http://www.w3.org/1999/xlink">
    <!-- Generator: Sketch 51.1 (57501) - http://www.bohemiancoding.com/sketch -->
    <title>main_spritesheet</title>
    <desc>Created with Sketch.</desc>
    <defs></defs>
    <g id="main_spritesheet" stroke="none" stroke-width="1" fill="none" fill-rule="evenodd">
        <g id="close" fill="#9B9B9B" fill-rule="nonzero">
            <rect id="Rectangle-35" transform="translate(6.717515, 6.717514) rotate(-45.000000) translate(-6.717515, -6.717514) " x="-1.782485" y="5.71751441" width="17" height="2" rx="1"></rect>
            <rect id="Rectangle-35-Copy" transform="translate(6.717514, 6.717515) rotate(45.000000) translate(-6.717514, -6.717515) " x="-1.78248559" y="5.717515" width="17" height="2" rx="1"></rect>
        </g>
        <g id="close-copy" transform="translate(16.000000, 0.000000)" fill="#717171" fill-rule="nonzero">
            <rect id="Rectangle-35" transform="translate(6.717515, 6.717514) rotate(-45.000000) translate(-6.717515, -6.717514) " x="-1.782485" y="5.71751441" width="17" height="2" rx="1"></rect>
            <rect id="Rectangle-35-Copy" transform="translate(6.717514, 6.717515) rotate(45.000000) translate(-6.717514, -6.717515) " x="-1.78248559" y="5.717515" width="17" height="2" rx="1"></rect>
        </g>
        <path d="M3.18831169,22.4877551 L7.0974026,18.6265306 C7.46103896,18.2673469 8.00649351,18.2673469 8.37012987,18.6265306 C8.73376623,18.9857143 8.73376623,19.5244898 8.37012987,19.8836735 L3.82467532,24.3734694 C3.64285714,24.5530612 3.37012987,24.6428571 3.18831169,24.6428571 C2.91558442,24.6428571 2.64285714,24.5530612 2.46103896,24.3734694 L-2.08441558,19.8836735 C-2.44805195,19.5244898 -2.44805195,18.9857143 -2.08441558,18.6265306 C-1.72077922,18.2673469 -1.17532468,18.2673469 -0.811688312,18.6265306 L3.18831169,22.4877551 Z" id="Down-Arrow-Copy" fill="#FFFFFF" transform="translate(3.142857, 21.500000) rotate(-90.000000) translate(-3.142857, -21.500000) "></path>
        <g id="Group-2" transform="translate(0.000000, 29.000000)" fill-rule="nonzero">
            <circle id="Oval-2" fill="#FFFFFF" cx="14" cy="14" r="14"></circle>
            <g id="close" transform="translate(7.000000, 7.000000)" fill="#337AB7">
                <rect id="Rectangle-35" transform="translate(6.717515, 6.717514) rotate(-45.000000) translate(-6.717515, -6.717514) " x="-1.78248459" y="5.717514" width="17" height="2" rx="1"></rect>
                <rect id="Rectangle-35-Copy" transform="translate(6.717514, 6.717515) rotate(45.000000) translate(-6.717514, -6.717515) " x="-1.782486" y="5.71751541" width="17" height="2" rx="1"></rect>
            </g>
        </g>
        <g id="edit" transform="translate(0.000000, 59.000000)" fill="#337AB7" fill-rule="nonzero">
            <path d="M9.94419506,1.93499059 C9.89514923,1.93505574 9.85542425,1.97483353 9.85542425,2.0238794 L9.85542425,12.5052056 L10.8421868,14.1235646 L11.8871703,12.5052056 L11.8842589,2.0213957 C11.8841937,1.97221036 11.8443439,1.93246635 11.795252,1.93253157 L9.94419506,1.93499059 Z M9.94153818,-0.0650076462 L11.7925951,-0.0674666655 C12.9462556,-0.0689992349 13.8827245,0.864984958 13.8842588,2.02074689 L13.887334,13.094543 L10.7936392,17.8857278 L7.85542425,13.0668516 L7.85542425,2.0238794 C7.85542425,0.871301464 8.78896126,-0.0634765161 9.94153818,-0.0650076462 Z" id="Rectangle-13" transform="translate(10.871379, 8.909130) rotate(45.000000) translate(-10.871379, -8.909130) "></path>
            <path d="M15,18 L15,11 C15,10.4477153 15.4477153,10 16,10 C16.5522847,10 17,10.4477153 17,11 L17,18.6322632 C17,19.3876434 16.3876434,20 15.6322632,20 L1.36773684,20 C0.612356641,20 5.55111512e-16,19.3876434 4.4408921e-16,18.6322632 L0,4.36773684 C0,3.61235664 0.612356641,3 1.36773684,3 L8,3 C8.55228475,3 9,3.44771525 9,4 C9,4.55228475 8.55228475,5 8,5 L2,5 L2,18 L15,18 Z" id="Path-7"></path>
        </g>
        <g id="edit-copy" transform="translate(0.000000, 81.000000)" fill="#23629A" fill-rule="nonzero">
            <path d="M9.94419506,1.93499059 C9.89514923,1.93505574 9.85542425,1.97483353 9.85542425,2.0238794 L9.85542425,12.5052056 L10.8421868,14.1235646 L11.8871703,12.5052056 L11.8842589,2.0213957 C11.8841937,1.97221036 11.8443439,1.93246635 11.795252,1.93253157 L9.94419506,1.93499059 Z M9.94153818,-0.0650076462 L11.7925951,-0.0674666655 C12.9462556,-0.0689992349 13.8827245,0.864984958 13.8842588,2.02074689 L13.887334,13.094543 L10.7936392,17.8857278 L7.85542425,13.0668516 L7.85542425,2.0238794 C7.85542425,0.871301464 8.78896126,-0.0634765161 9.94153818,-0.0650076462 Z" id="Rectangle-13" transform="translate(10.871379, 8.909130) rotate(45.000000) translate(-10.871379, -8.909130) "></path>
            <path d="M15,18 L15,11 C15,10.4477153 15.4477153,10 16,10 C16.5522847,10 17,10.4477153 17,11 L17,18.6322632 C17,19.3876434 16.3876434,20 15.6322632,20 L1.36773684,20 C0.612356641,20 5.55111512e-16,19.3876434 4.4408921e-16,18.6322632 L0,4.36773684 C0,3.61235664 0.612356641,3 1.36773684,3 L8,3 C8.55228475,3 9,3.44771525 9,4 C9,4.55228475 8.55228475,5 8,5 L2,5 L2,18 L15,18 Z" id="Path-7"></path>
        </g>
    </g>
</svg>